<svg id="visual" viewBox="0 0 1920 1080" width="1920" height="1080" xmlns="http://www.w3.org/2000/svg" xmlns:xlink="http://www.w3.org/1999/xlink" version="1.1"><rect x="0" y="0" width="1920" height="1080" fill="#001220"></rect><defs><linearGradient id="grad1_0" x1="43.8%" y1="100%" x2="100%" y2="0%"><stop offset="14.444444444444446%" stop-color="#fbae3c" stop-opacity="1"></stop><stop offset="85.55555555555554%" stop-color="#fbae3c" stop-opacity="1"></stop></linearGradient></defs><defs><linearGradient id="grad1_1" x1="43.8%" y1="100%" x2="100%" y2="0%"><stop offset="14.444444444444446%" stop-color="#fbae3c" stop-opacity="1"></stop><stop offset="85.55555555555554%" stop-color="#eb7458" stop-opacity="1"></stop></linearGradient></defs><defs><linearGradient id="grad1_2" x1="43.8%" y1="100%" x2="100%" y2="0%"><stop offset="14.444444444444446%" stop-color="#b84e6c" stop-opacity="1"></stop><stop offset="85.55555555555554%" stop-color="#eb7458" stop-opacity="1"></stop></linearGradient></defs><defs><linearGradient id="grad1_3" x1="43.8%" y1="100%" x2="100%" y2="0%"><stop offset="14.444444444444446%" stop-color="#b84e6c" stop-opacity="1"></stop><stop offset="85.55555555555554%" stop-color="#713c69" stop-opacity="1"></stop></linearGradient></defs><defs><linearGradient id="grad1_4" x1="43.8%" y1="100%" x2="100%" y2="0%"><stop offset="14.444444444444446%" stop-color="#2d2b4c" stop-opacity="1"></stop><stop offset="85.55555555555554%" stop-color="#713c69" stop-opacity="1"></stop></linearGradient></defs><defs><linearGradient id="grad1_5" x1="43.8%" y1="100%" x2="100%" y2="0%"><stop offset="14.444444444444446%" stop-color="#2d2b4c" stop-opacity="1"></stop><stop offset="85.55555555555554%" stop-color="#001220" stop-opacity="1"></stop></linearGradient></defs><defs><linearGradient id="grad2_0" x1="0%" y1="100%" x2="56.3%" y2="0%"><stop offset="14.444444444444446%" stop-color="#fbae3c" stop-opacity="1"></stop><stop offset="85.55555555555554%" stop-color="#fbae3c" stop-opacity="1"></stop></linearGradient></defs><defs><linearGradient id="grad2_1" x1="0%" y1="100%" x2="56.3%" y2="0%"><stop offset="14.444444444444446%" stop-color="#eb7458" stop-opacity="1"></stop><stop offset="85.55555555555554%" stop-color="#fbae3c" stop-opacity="1"></stop></linearGradient></defs><defs><linearGradient id="grad2_2" x1="0%" y1="100%" x2="56.3%" y2="0%"><stop offset="14.444444444444446%" stop-color="#eb7458" stop-opacity="1"></stop><stop offset="85.55555555555554%" stop-color="#b84e6c" stop-opacity="1"></stop></linearGradient></defs><defs><linearGradient id="grad2_3" x1="0%" y1="100%" x2="56.3%" y2="0%"><stop offset="14.444444444444446%" stop-color="#713c69" stop-opacity="1"></stop><stop offset="85.55555555555554%" stop-color="#b84e6c" stop-opacity="1"></stop></linearGradient></defs><defs><linearGradient id="grad2_4" x1="0%" y1="100%" x2="56.3%" y2="0%"><stop offset="14.444444444444446%" stop-color="#713c69" stop-opacity="1"></stop><stop offset="85.55555555555554%" stop-color="#2d2b4c" stop-opacity="1"></stop></linearGradient></defs><defs><linearGradient id="grad2_5" x1="0%" y1="100%" x2="56.3%" y2="0%"><stop offset="14.444444444444446%" stop-color="#001220" stop-opacity="1"></stop><stop offset="85.55555555555554%" stop-color="#2d2b4c" stop-opacity="1"></stop></linearGradient></defs><g transform="translate(1920, 1080)"><path d="M-972 0C-898.1 -109.3 -824.2 -218.5 -766.8 -317.6C-709.4 -416.7 -668.4 -505.6 -610.2 -610.2C-552 -714.8 -476.6 -835.1 -372 -898C-267.4 -960.9 -133.7 -966.5 0 -972L0 0Z" fill="#131f37"></path><path d="M-810 0C-748.4 -91.1 -686.9 -182.1 -639 -264.7C-591.2 -347.3 -557 -421.4 -508.5 -508.5C-460 -595.7 -397.1 -695.9 -310 -748.3C-222.8 -800.8 -111.4 -805.4 0 -810L0 0Z" fill="#4d345e"></path><path d="M-648 0C-598.7 -72.8 -549.5 -145.7 -511.2 -211.8C-472.9 -277.8 -445.6 -337.1 -406.8 -406.8C-368 -476.6 -317.7 -556.7 -248 -598.7C-178.3 -640.6 -89.1 -644.3 0 -648L0 0Z" fill="#96446e"></path><path d="M-486 0C-449.1 -54.6 -412.1 -109.3 -383.4 -158.8C-354.7 -208.4 -334.2 -252.8 -305.1 -305.1C-276 -357.4 -238.3 -417.6 -186 -449C-133.7 -480.5 -66.8 -483.2 0 -486L0 0Z" fill="#d55e64"></path><path d="M-324 0C-299.4 -36.4 -274.7 -72.8 -255.6 -105.9C-236.5 -138.9 -222.8 -168.5 -203.4 -203.4C-184 -238.3 -158.9 -278.4 -124 -299.3C-89.1 -320.3 -44.6 -322.2 0 -324L0 0Z" fill="#f88f4a"></path><path d="M-162 0C-149.7 -18.2 -137.4 -36.4 -127.8 -52.9C-118.2 -69.5 -111.4 -84.3 -101.7 -101.7C-92 -119.1 -79.4 -139.2 -62 -149.7C-44.6 -160.2 -22.3 -161.1 0 -162L0 0Z" fill="#fbae3c"></path></g><g transform="translate(0, 0)"><path d="M972 0C906.7 115.9 841.5 231.7 773.3 320.3C705.1 408.9 634 470.2 574.2 574.2C514.3 678.1 465.8 824.6 372 898C278.2 971.4 139.1 971.7 0 972L0 0Z" fill="#131f37"></path><path d="M810 0C755.6 96.5 701.2 193.1 644.4 266.9C587.6 340.8 528.3 391.9 478.5 478.5C428.6 565.1 388.2 687.2 310 748.3C231.8 809.5 115.9 809.8 0 810L0 0Z" fill="#4d345e"></path><path d="M648 0C604.5 77.2 561 154.5 515.5 213.5C470.1 272.6 422.7 313.5 382.8 382.8C342.9 452.1 310.5 549.7 248 598.7C185.4 647.6 92.7 647.8 0 648L0 0Z" fill="#96446e"></path><path d="M486 0C453.4 57.9 420.7 115.9 386.6 160.2C352.6 204.5 317 235.1 287.1 287.1C257.2 339 232.9 412.3 186 449C139.1 485.7 69.5 485.9 0 486L0 0Z" fill="#d55e64"></path><path d="M324 0C302.2 38.6 280.5 77.2 257.8 106.8C235 136.3 211.3 156.7 191.4 191.4C171.4 226 155.3 274.9 124 299.3C92.7 323.8 46.4 323.9 0 324L0 0Z" fill="#f88f4a"></path><path d="M162 0C151.1 19.3 140.2 38.6 128.9 53.4C117.5 68.2 105.7 78.4 95.7 95.7C85.7 113 77.6 137.4 62 149.7C46.4 161.9 23.2 162 0 162L0 0Z" fill="#fbae3c"></path></g></svg>